<svg width="62" height="29" fill="none" xmlns="http://www.w3.org/2000/svg"><path fill-rule="evenodd" clip-rule="evenodd" d="M15.045 17.424c0 1.515-.63 2.745-1.905 3.69-1.26.945-3.105 1.425-5.52 1.425-3.585 0-6.12-.915-7.62-2.745l2.76-3c.885 1.47 2.43 2.22 4.605 2.22.735 0 1.305-.105 1.725-.3.42-.195.63-.465.63-.795 0-.3-.225-.555-.645-.765-.435-.225-1.155-.435-2.205-.645-2.325-.45-3.99-1.08-4.98-1.875-.99-.78-1.485-1.83-1.485-3.15 0-.885.285-1.74.855-2.52.555-.795 1.41-1.44 2.535-1.92 1.14-.495 2.52-.735 4.14-.735 1.245 0 2.325.12 3.255.345l-3.18 3.18c-.72.015-1.26.135-1.665.345-.42.225-.63.51-.63.84 0 .315.21.57.645.795.42.225 1.17.435 2.235.645 2.28.39 3.93.975 4.935 1.755 1.02.78 1.515 1.845 1.515 3.21z" fill="#323232"/><path fill-rule="evenodd" clip-rule="evenodd" d="M10.23 10.194l2.79-2.79c.825.45 1.5 1.065 2.055 1.83l-2.745 2.685c-.495-.72-1.095-1.26-1.77-1.59-.105-.045-.21-.09-.33-.135z" fill="#A7A7A7"/><path fill-rule="evenodd" clip-rule="evenodd" d="M22.073 13.078h5.867c-.25-2.04-1.207-3.06-2.872-3.06-1.684 0-2.684 1.02-2.995 3.06zm10.672 2.87H22.103c.166.978.526 1.698 1.076 2.154.553.457 1.286.687 2.203.687.769 0 1.399-.146 1.888-.438.488-.29.814-.716.983-1.28l4.304 1.374c-.434 1.334-1.284 2.348-2.542 3.044-1.259.697-2.803 1.045-4.634 1.045-2.727 0-4.811-.708-6.259-2.122-1.446-1.416-2.169-3.411-2.169-5.993 0-2.58.708-4.576 2.123-5.99 1.414-1.417 3.422-2.125 6.023-2.125 2.519 0 4.448.693 5.79 2.075 1.343 1.384 2.014 3.325 2.014 5.821 0 .71-.05 1.292-.158 1.748zm8.367.875c0 .707.104 1.206.312 1.498.209.292.582.436 1.124.436.5 0 1.03-.093 1.591-.282l-.342 3.28c-.376.229-.864.417-1.468.562a7.648 7.648 0 01-1.778.218c-1.666 0-2.872-.39-3.622-1.17-.749-.78-1.122-2.036-1.122-3.762V0h5.305v16.823z" fill="#323232"/><mask id="a" maskUnits="userSpaceOnUse" x="43" y="6" width="19" height="23"><path fill-rule="evenodd" clip-rule="evenodd" d="M43.734 6.616h17.695v22.317H43.734V6.616z" fill="#fff"/></mask><g mask="url(#a)"><path fill-rule="evenodd" clip-rule="evenodd" d="M55.717 22.223c-.582 1.663-1.216 2.985-1.902 3.964-.687.978-1.498 1.68-2.436 2.106-.934.428-2.07.64-3.402.64-1.767 0-3.181-.386-4.243-1.156l1.122-3.558a2.68 2.68 0 001.108.64c.407.114.932.173 1.577.173.645 0 1.156-.11 1.53-.329.375-.217.675-.608.903-1.17l.376-.967-1.81-4.245-4.652-11.705h5.837l2.403 8.896.75 3.31.843-3.435 2.403-8.77h5.305l-5.712 15.605z" fill="#323232"/></g></svg>